<?xml version="1.0" encoding="UTF-8"?>
<!DOCTYPE svg PUBLIC "-//W3C//DTD SVG 1.1//EN" "http://www.w3.org/Graphics/SVG/1.1/DTD/svg11.dtd">
<!-- Creator: CorelDRAW 2020 (64-Bit) -->
<svg xmlns="http://www.w3.org/2000/svg" xml:space="preserve" width="1.82785in" height="0.244398in" version="1.1" style="shape-rendering:geometricPrecision; text-rendering:geometricPrecision; image-rendering:optimizeQuality; fill-rule:evenodd; clip-rule:evenodd"
viewBox="0 0 1827.9 244.4"
 xmlns:xlink="http://www.w3.org/1999/xlink"
 xmlns:xodm="http://www.corel.com/coreldraw/odm/2003">
 <defs>
  <style type="text/css">
   <![CDATA[
    .str0 {stroke:#B1361E;stroke-width:3;stroke-miterlimit:2.61313}
    .fil0 {fill:#B1361E;fill-rule:nonzero}
   ]]>
  </style>
 </defs>
 <g id="Layer_x0020_1">
  <metadata id="CorelCorpID_0Corel-Layer"/>
  <path class="fil0 str0" d="M183.44 230.57c-17.01,8.23 -39.28,12.33 -66.71,12.33 -35.78,0 -63.94,-10.49 -84.45,-31.56 -20.56,-21.06 -30.78,-49.12 -30.78,-84.18 0,-37.34 11.5,-67.62 34.55,-90.85 23.05,-23.23 53,-34.83 89.79,-34.83 22.77,0 42,2.89 57.6,8.66l0 50.6c-15.6,-9.33 -33.39,-13.99 -53.4,-13.99 -21.89,0 -39.61,6.89 -53.04,20.66 -13.44,13.79 -20.16,32.44 -20.16,55.99 0,22.55 6.34,40.56 19.05,53.95 12.66,13.39 29.77,20.11 51.28,20.11 20.51,0 39.28,-5.01 56.27,-15l0 48.06 0 0.03zm135.28 12.33c-33.44,0 -60.67,-10.9 -81.73,-32.61 -21.06,-21.79 -31.56,-50.1 -31.56,-85.06 0,-36.89 10.67,-66.73 32.06,-89.51 21.39,-22.77 49.67,-34.23 84.96,-34.23 33.34,0 60.27,10.95 80.83,32.71 20.56,21.84 30.83,50.6 30.83,86.29 0,36.67 -10.67,66.28 -32.01,88.73 -21.29,22.45 -49.12,33.67 -83.4,33.67l0.02 0zm2.26 -196.11c-18.45,0 -33.12,6.89 -43.94,20.78 -10.82,13.84 -16.28,32.11 -16.28,54.88 0,23.1 5.44,41.39 16.28,54.88 10.85,13.44 25.06,20.16 42.6,20.16 18.17,0 32.51,-6.54 43.16,-19.6 10.62,-13.11 15.95,-31.23 15.95,-54.45 0,-24.23 -5.16,-43.06 -15.45,-56.49 -10.34,-13.44 -24.43,-20.16 -42.33,-20.16zm151.84 192.06l0 -233.4 82.71 0c82.89,0 124.34,37.9 124.34,113.79 0,36.34 -11.32,65.33 -33.95,87.07 -22.62,21.72 -52.72,32.56 -90.39,32.56l-82.71 0 0 -0.03zm52.62 -190.62l0 147.94 26.04 0c22.77,0 40.62,-6.85 53.6,-20.51 12.93,-13.67 19.45,-32.28 19.45,-55.84 0,-22.22 -6.44,-39.73 -19.28,-52.44 -12.88,-12.78 -30.87,-19.17 -54.1,-19.17l-25.72 0 0 0.02zm333.17 190.62l-140.02 0 0 -233.4 134.61 0 0 42.78 -82.01 0 0 51.94 76.32 0 0 42.6 -76.32 0 0 53.4 87.4 0 0 42.65 0.02 0.02zm349.46 -233.4l-61.73 233.4 -58.28 0 -38.73 -149.73c-2.06,-7.83 -3.27,-16.56 -3.72,-26.22l-0.65 0c-1.01,10.62 -2.39,19.4 -4.23,26.22l-39.73 149.73 -60.72 0 -61.32 -233.4 57.45 0 32.89 155.44c1.39,6.62 2.44,15.5 3.04,26.67l1.01 0c0.45,-8.33 1.99,-17.44 4.73,-27.33l42.33 -154.79 56.29 0 38.28 156.72c1.39,5.79 2.67,14.12 3.72,25.06l0.65 0c0.45,-8.56 1.56,-17.21 3.4,-26l32.28 -155.79 53.04 0zm223.11 233.4l-57.27 0 -16.61 -51.94 -82.99 0 -16.46 51.94 -57 0 85.01 -233.4 62.33 0 82.99 233.4 -0 0zm-85.94 -92.28l-25.06 -78.44c-1.84,-5.89 -3.17,-12.88 -3.95,-21.01l-1.28 0c-0.56,6.85 -1.89,13.61 -4.05,20.33l-25.39 79.12 59.71 0 0.02 0zm310.91 92.28l-60.4 0 -36.29 -60.07c-2.72,-4.56 -5.33,-8.61 -7.83,-12.23 -2.49,-3.55 -5.01,-6.62 -7.55,-9.16 -2.57,-2.57 -5.21,-4.5 -8,-5.89 -2.77,-1.33 -5.79,-1.99 -9.01,-1.99l-14.17 0 0 89.33 -52.62 0 0 -233.4 83.34 0c56.67,0 85.01,21.16 85.01,63.44 0,8.15 -1.28,15.68 -3.78,22.55 -2.49,6.89 -5.99,13.11 -10.54,18.67 -4.56,5.51 -10.07,10.29 -16.51,14.27 -6.49,4.05 -13.67,7.17 -21.61,9.44l0 0.65c3.5,1.11 6.85,2.84 10.11,5.28 3.27,2.44 6.39,5.28 9.44,8.56 3.04,3.27 5.94,6.77 8.73,10.49 2.77,3.72 5.28,7.4 7.55,11l44.11 69 0 0.06zm-143.21 -193.99l0 64.95 22.77 0c11.27,0 20.33,-3.27 27.18,-9.79 6.95,-6.62 10.45,-14.82 10.45,-24.56 0,-20.43 -12.23,-30.6 -36.67,-30.6l-23.73 0 0 -0zm154.28 185.06l0 -52.12c9.44,7.95 19.73,13.89 30.78,17.84 11.05,3.95 22.22,5.94 33.49,5.94 6.67,0 12.43,-0.6 17.34,-1.79 4.96,-1.23 9.06,-2.84 12.38,-5.01 3.35,-2.11 5.79,-4.61 7.4,-7.45 1.66,-2.89 2.44,-5.99 2.44,-9.39 0,-4.56 -1.28,-8.61 -3.9,-12.15 -2.62,-3.6 -6.17,-6.95 -10.67,-9.94 -4.5,-3.04 -9.84,-5.99 -16.06,-8.78 -6.17,-2.82 -12.84,-5.71 -20,-8.66 -18.22,-7.55 -31.83,-16.84 -40.76,-27.83 -8.93,-10.95 -13.39,-24.16 -13.39,-39.66 0,-12.15 2.39,-22.62 7.27,-31.33 4.88,-8.78 11.55,-15.95 19.93,-21.61 8.46,-5.61 18.17,-9.79 29.22,-12.46 11.05,-2.67 22.77,-4 35.15,-4 12.18,0 22.95,0.78 32.34,2.21 9.33,1.43 17.99,3.72 25.95,6.77l0 48.67c-3.95,-2.72 -8.15,-5.11 -12.78,-7.17 -4.61,-2.06 -9.39,-3.78 -14.27,-5.16 -4.83,-1.33 -9.71,-2.34 -14.54,-3 -4.83,-0.6 -9.39,-0.96 -13.71,-0.96 -5.99,0 -11.4,0.56 -16.28,1.66 -4.88,1.16 -9.01,2.77 -12.38,4.83 -3.35,2.06 -5.94,4.5 -7.83,7.4 -1.84,2.89 -2.72,6.11 -2.72,9.66 0,3.95 1.01,7.45 3.04,10.49 2.06,3.12 5.01,6.06 8.83,8.83 3.78,2.72 8.38,5.44 13.84,8.1 5.39,2.67 11.55,5.39 18.39,8.23 9.33,3.9 17.67,8.05 25.11,12.46 7.45,4.38 13.84,9.39 19.1,14.9 5.33,5.56 9.39,11.88 12.23,19 2.84,7.05 4.23,15.32 4.23,24.79 0,13.06 -2.44,23.96 -7.4,32.84 -4.96,8.83 -11.63,16 -20.11,21.44 -8.46,5.51 -18.27,9.44 -29.49,11.83 -11.27,2.39 -23.1,3.55 -35.61,3.55 -12.78,0 -24.94,-1.06 -36.49,-3.22 -11.55,-2.17 -21.61,-5.44 -30.05,-9.79l-0.02 0.04z"/>
 </g>
</svg>
