<?xml version="1.0" encoding="UTF-8"?>
<!DOCTYPE svg PUBLIC "-//W3C//DTD SVG 1.1//EN" "http://www.w3.org/Graphics/SVG/1.1/DTD/svg11.dtd">
<!-- Creator: CorelDRAW 2020 (64-Bit) -->
<svg xmlns="http://www.w3.org/2000/svg" xml:space="preserve" width="0.243748in" height="0.241in" version="1.1" style="shape-rendering:geometricPrecision; text-rendering:geometricPrecision; image-rendering:optimizeQuality; fill-rule:evenodd; clip-rule:evenodd"
viewBox="0 0 23.84 23.57"
 xmlns:xlink="http://www.w3.org/1999/xlink"
 xmlns:xodm="http://www.corel.com/coreldraw/odm/2003">
 <defs>
  <style type="text/css">
   <![CDATA[
    .fil0 {fill:#AE3424}
    .fil8 {fill:#CE887C}
    .fil4 {fill:#D39287}
    .fil9 {fill:#D4978C}
    .fil2 {fill:#D5988E}
    .fil3 {fill:#D79B91}
    .fil6 {fill:#D79C93}
    .fil7 {fill:#D9A399}
    .fil5 {fill:#DBA89F}
    .fil1 {fill:white}
   ]]>
  </style>
 </defs>
 <g id="Layer_x0020_1">
  <metadata id="CorelCorpID_0Corel-Layer"/>
  <g id="_2420712626544">
   <path class="fil0" d="M5.01 17.69l0.03 0.08c0.01,0.55 0.04,0.79 0.35,1.13 0.22,0.25 0.59,0.44 1.08,0.42 -0.1,0.51 0.04,0.93 0.33,1.18 0.39,0.33 0.71,0.29 1.21,0.15 0.05,0.42 0.29,0.66 0.61,0.81 0.41,0.18 0.81,-0.02 1.05,-0.2 0.13,0.17 0.12,0.26 0.31,0.39 0.14,0.1 0.3,0.18 0.51,0.19 0.42,0.01 0.76,-0.23 0.84,-0.52 0.3,0.11 0.45,0.27 0.84,0.1 0.13,-0.06 0.32,-0.24 0.39,-0.39l0.08 -0.19c0.42,0.1 0.77,-0.05 0.85,-0.42 0.05,-0.05 0.03,-0.02 0.08,-0.05 0.48,0.71 1.72,0.83 2.27,-0.24 0.81,0.66 1.76,0.33 1.9,-0.7 0.22,0.01 0.29,0.09 0.58,0.03 0.19,-0.04 0.33,-0.12 0.44,-0.23 0.27,-0.26 0.37,-0.5 0.3,-1 0.38,-0.02 0.71,-0.07 0.91,-0.42 0.26,-0.45 0.1,-0.66 -0.03,-1.03 0.15,-0.1 0.2,-0.09 0.29,-0.22 0.17,-0.23 0.21,-0.58 0.09,-0.83 -0.08,-0.15 -0.14,-0.15 -0.22,-0.28 0.27,-0.33 0.29,-0.36 0.17,-0.84 0.42,-0.15 0.71,-0.38 0.88,-0.76 0.28,-0.65 -0.05,-1.05 -0.13,-1.3 0.43,-0.18 0.7,-0.32 0.81,-0.84 0.05,-0.24 0.02,-0.49 -0.08,-0.7 -0.15,-0.31 -0.3,-0.35 -0.38,-0.45 0.04,-0.07 0.02,-0.05 0.09,-0.11 0.06,-0.06 0.05,-0.03 0.09,-0.09 0.16,-0.22 0.22,-0.57 0.14,-0.85 -0.11,-0.4 -0.36,-0.53 -0.7,-0.7 0.16,-0.26 0.28,-0.56 0.12,-0.94 -0.11,-0.26 -0.32,-0.47 -0.66,-0.49 -0.1,-0.08 -0.12,-0.06 -0.26,-0.05 0.01,-0.14 0.04,-0.11 -0.03,-0.2 -0.03,-0.48 -0.49,-0.73 -1.03,-0.61 -0.21,-0.29 -0.07,-0.41 -0.55,-0.55 0.05,-0.5 -0,-0.76 -0.24,-1.1 -0.14,-0.2 -0.48,-0.47 -0.87,-0.49 -0.1,-0.05 -0.09,-0.04 -0.23,-0.04 -0.04,-0.04 -0.04,0.05 -0.03,-0.06 0.01,-0.25 0.03,-0.43 -0.05,-0.67 -0.17,-0.47 -0.78,-0.85 -1.49,-0.58 -0.12,-0.3 -0.23,-0.65 -0.65,-0.8 -0.38,-0.13 -0.83,-0.03 -1.03,0.22l-0.08 -0.12c-0.31,-0.57 -0.96,-0.59 -1.3,-0.33 -0.22,0.17 -0.23,0.27 -0.34,0.36 -0.44,-0.32 -1.08,-0.18 -1.23,0.49 -0.52,-0.09 -0.79,0.03 -0.92,0.51 -0.07,-0.08 -0.14,-0.2 -0.21,-0.25 -0.68,-0.52 -1.5,-0.41 -1.95,0.17 -0.06,0.08 -0.09,0.19 -0.17,0.27 -0.51,-0.56 -1.78,-0.43 -1.88,0.73 -1.01,-0.26 -1.49,0.54 -1.32,1.2 -0.45,0.02 -0.74,0.12 -0.91,0.42 -0.25,0.43 -0.12,0.66 0.04,1.03 -0.53,0.23 -0.67,0.93 -0.18,1.29 -0.17,0.31 -0.36,0.36 -0.18,0.85 -0.1,0.07 -0.21,0.09 -0.3,0.14 -0.27,0.16 -0.44,0.34 -0.57,0.65 -0.24,0.55 -0.02,0.93 0.14,1.29 -0.89,0.26 -1.19,1.31 -0.34,2 -0.24,0.16 -0.47,0.61 -0.33,1.06 0.05,0.16 0.19,0.37 0.27,0.44 0.13,0.12 0.32,0.16 0.44,0.25 -0.22,0.3 -0.29,0.62 -0.09,1 0.15,0.29 0.44,0.47 0.9,0.45 -0.02,0.61 0.45,1.04 1.07,0.83 0.07,0.25 0.18,0.49 0.47,0.53zm17.97 -17.63c1.01,0.29 0.84,1.05 0.84,2.11l0 14.82c0,0.83 0.08,5.47 -0.07,5.86 -0.33,0.88 -1.24,0.7 -2.23,0.7l-17.78 0c-0.61,0 -2.45,0.07 -2.92,-0.04 -0.37,-0.09 -0.63,-0.35 -0.75,-0.7 -0.11,-0.33 -0.06,-3.87 -0.06,-4.37l0 -11.86c0,-0.83 -0.08,-5.44 0.07,-5.85 0.34,-0.92 1.33,-0.71 2.21,-0.71l17.78 0c0.53,0 2.56,-0.06 2.9,0.04z"/>
   <path class="fil1" d="M12.63 17.63l0.01 0.13 0.43 0.02c0.28,0.02 0.57,0.28 0.7,0.49 0.05,0.09 0.06,0.15 0.12,0.22 0.27,-0.18 0.66,-0.29 1.06,-0.19 0.47,0.12 0.58,0.36 0.76,0.5 0.25,-0.4 0.76,-0.68 1.38,-0.42 0.17,-0.37 0.26,-0.95 1.23,-0.86 -0.03,-0.31 -0,-0.47 0.13,-0.7 0.11,-0.18 0.24,-0.25 0.49,-0.36 -0.11,-0.19 -0.14,-0.42 -0.07,-0.66 0.1,-0.3 0.17,-0.27 0.35,-0.44l-0.06 -0.1c-0.4,0.27 -0.72,0.55 -1.41,0.15 -0.19,0.28 -0.39,0.53 -0.84,0.57 -0.49,0.04 -0.73,-0.23 -0.94,-0.46 -0.31,0.35 -1.19,0.55 -1.56,-0.44 -0.25,0.15 -0.5,0.16 -0.78,0.01 -0.22,-0.12 -0.33,-0.38 -0.33,-0.7 -0.58,0.04 -0.84,-0.26 -0.79,-0.84 -0.27,-0.05 -0.38,-0.19 -0.39,-0.49 -0.27,0.04 -0.44,-0 -0.66,0.02 -0,0.09 -0.01,0.17 -0.06,0.24l-0.12 0.15c0.07,0.12 0.11,0.09 0.16,0.25 0.12,0.35 -0.02,0.61 -0.3,0.79 0.26,0.49 0.33,0.43 0.08,1.03 0.23,0.12 0.38,0.21 0.5,0.45 0.12,0.23 0.11,0.51 0.03,0.77 0.45,0.05 0.83,0.4 0.86,0.86zm-0.9 1.16c-0.51,-0.11 -0.69,-0.09 -0.91,-0.46 -0.25,-0.4 -0.21,-0.61 -0.07,-1.04 -0.37,-0.1 -0.55,-0.25 -0.67,-0.59 -0.18,-0.51 0.18,-0.84 0.23,-0.97 -0.12,-0.1 -0.41,-0.27 -0.37,-0.7 0.03,-0.38 0.21,-0.45 0.43,-0.62 -0.38,-0.55 -0.08,-1.01 0.33,-1.08 -0.09,-0.32 -0.02,-0.42 0.17,-0.6 -0.07,-0.17 -0.11,-0.07 -0.35,-0.58 -0.13,0.05 -0.26,0.03 -0.39,-0.01 -0.15,0.49 -0.49,0.57 -1.01,0.4 -0.12,0.48 -0.47,0.53 -0.84,0.56 0.03,0.63 -0.26,0.94 -0.81,1.05 0.24,0.65 -0.15,0.97 -0.43,1.24 0.1,0.29 0.23,0.36 0.2,0.78 -0.02,0.3 -0.18,0.47 -0.29,0.68 0.27,0.08 0.49,0.37 0.62,0.67 0.17,0.41 0.09,0.68 -0.03,1.06 0.58,0.05 1,0.46 1.04,1.04 0.35,-0.09 0.56,-0.13 0.87,0.05 0.2,0.12 0.39,0.32 0.45,0.59 0.48,-0.22 0.61,-0.41 1.27,0.05 0.39,-0.49 0.63,-0.43 1.1,-0.27l0.1 -0.21c-0.43,-0.2 -0.64,-0.54 -0.64,-1.05zm-2.82 -9.34c-0.57,0.4 -0.93,0.23 -1.33,-0.15 -0.19,0.18 -0.21,0.29 -0.56,0.37 -0.24,0.06 -0.56,0.01 -0.74,-0.11 -0.39,0.81 -0.85,0.65 -1.26,0.7 -0,0.8 -0.42,1.26 -1.2,1.4 0.2,0.65 0.22,0.9 -0.33,1.44 0.64,0.68 0.36,1.01 0.14,1.48 0.38,0.24 0.66,0.33 0.59,1.08 0.77,0.05 0.69,0.59 0.82,0.8 0.09,-0.04 0.06,-0 0.03,-0.16 -0.18,-0.82 0.53,-1.17 0.6,-1.24 -0.13,-0.41 -0.25,-0.61 -0.01,-1.06 0.16,-0.3 0.5,-0.47 0.85,-0.49 -0.03,-0.21 -0.06,-0.37 0.02,-0.57 0.18,-0.46 0.63,-0.7 1.15,-0.56 0.08,-0.33 0.15,-0.51 0.39,-0.65 0.36,-0.21 0.51,-0.05 0.81,0.03 0.1,-0.18 0.04,-0.12 0.18,-0.26 0.29,-0.28 0.72,-0.19 0.93,0.03 0.16,-0.14 0.25,-0.17 0.54,-0.15 0.07,-0.23 0.19,-0.41 0.29,-0.54 -0.09,-0.11 -0.06,-0.12 -0.13,-0.28 -0.26,0.01 -0.42,0.03 -0.61,-0.14 -0.2,-0.18 -0.19,-0.21 -0.25,-0.52 -0.48,0.11 -0.74,-0.11 -0.9,-0.44zm4.02 3.61l0 0.08 0.08 -0.03c0.49,-0.03 0.76,0.19 0.79,0.66 0.5,-0.04 0.74,0.05 0.91,0.45 0.69,-0.42 0.89,-0.21 1.33,0.13 0.4,-0.34 0.64,-0.49 1.3,-0.26 0.19,-0.22 0.23,-0.63 1.12,-0.69l0.17 0.05 0.01 -0.33c0.03,-0.62 0.61,-1 1.16,-1.1 -0.3,-0.62 -0.07,-1.07 0.35,-1.46 -0.57,-0.3 -0.45,-1.27 -0.13,-1.47 -0.74,-0.28 -0.6,-0.74 -0.63,-1.08 -0.26,-0.02 -0.44,-0.1 -0.57,-0.25 -0.2,-0.23 -0.14,-0.27 -0.22,-0.57 -0.13,0.05 -0.09,-0.03 -0.06,0.17 0.1,0.54 -0.17,1.08 -0.6,1.21 0.15,0.41 0.27,0.65 0.02,1.1 -0.24,0.44 -0.71,0.45 -0.84,0.5 0.07,0.38 -0.05,0.75 -0.26,0.91 -0.36,0.29 -0.44,0.2 -0.93,0.21 -0.02,0.34 -0.16,0.53 -0.4,0.65 -0.33,0.16 -0.5,0.05 -0.77,-0.05 -0.17,0.2 -0.18,0.36 -0.49,0.42 -0.26,0.05 -0.55,-0.06 -0.64,-0.2 -0.23,0.22 -0.26,0.21 -0.6,0.13 -0.08,0.26 -0.2,0.37 -0.33,0.51 0.1,0.08 0.18,0.14 0.21,0.3zm-1.16 -6.18c-0.46,-0.08 -0.71,-0.46 -0.79,-0.94 -0.15,-0.04 -0.3,0 -0.47,-0.05 -0.58,-0.17 -0.59,-0.47 -0.76,-0.71 -0.34,0.14 -0.59,0.29 -1.04,0.18 -0.28,-0.06 -0.52,-0.21 -0.7,-0.42l-0.08 -0.08c-0.35,0.4 -0.7,0.61 -1.41,0.42 -0.09,0.34 -0.18,0.52 -0.39,0.68 -0.23,0.17 -0.51,0.21 -0.83,0.17 0.08,0.73 -0.27,0.85 -0.61,1.09 0.36,0.71 -0.29,1.09 -0.3,1.1l0.06 0.08c0.08,-0.03 0.02,0 0.09,-0.05 0.55,-0.4 0.79,-0.32 1.35,-0.09 0.12,-0.28 0.41,-0.55 0.82,-0.57 0.29,-0.01 0.59,0.09 0.78,0.27 0.08,0.08 0.05,0.09 0.15,0.17 0.14,-0.06 0.19,-0.16 0.39,-0.22 0.5,-0.17 1,0.08 1.17,0.67 0.27,-0.11 0.42,-0.18 0.73,-0.02 0.17,0.09 0.35,0.27 0.37,0.52l0 0.22 0.29 -0.01c0.41,0.05 0.57,0.36 0.53,0.82 0.42,0.2 0.2,0.05 0.4,0.35 0.27,-0.04 0.36,-0.03 0.63,0.01l0.05 -0.08c0.02,-0.03 0.02,-0.04 0.04,-0.07 0.04,-0.06 0.06,-0.07 0.1,-0.15 -0.19,-0.09 -0.43,-0.59 0.12,-1.03 -0.27,-0.29 -0.29,-0.62 -0.08,-1 -0.31,-0.22 -0.73,-0.39 -0.58,-1.13l0.04 -0.09 -0.09 -0.03zm3.32 3.71l0.28 -0.01 0 -0.35c0.09,-0.42 0.35,-0.63 0.78,-0.72 -0.05,-0.37 -0.12,-0.44 0.04,-0.81 0.07,-0.16 0.27,-0.35 0.42,-0.43 -0.14,-0.2 -0.25,-0.41 -0.22,-0.76 0.03,-0.39 0.16,-0.44 0.28,-0.67 -0.14,-0.14 -0.24,-0.12 -0.37,-0.29 -0.52,-0.71 -0.33,-0.85 -0.23,-1.47 -0.18,-0.02 -0.27,-0.05 -0.42,-0.11 -0.43,-0.19 -0.52,-0.52 -0.61,-0.9 -0.43,-0 -0.47,0.14 -0.91,-0.1 -0.24,-0.13 -0.45,-0.55 -0.45,-0.56 -0,-0.02 -0.02,-0.01 -0.02,-0.02 -0.15,0.23 -0.61,0.3 -0.96,0.13 -0.07,-0.04 -0.09,-0.04 -0.14,-0.08l-0.12 -0.09c-0.17,0.35 -0.59,0.5 -1.07,0.27l-0.12 0.21c0.4,0.16 0.65,0.5 0.65,1.06 0.44,0 0.7,0.18 0.9,0.42 0.27,0.33 0.19,0.67 0.08,1.07 0.6,0.14 0.81,0.66 0.68,1.13 -0.07,0.23 -0.15,0.26 -0.24,0.41l0.17 0.15c0.14,0.14 0.22,0.34 0.21,0.55 -0.02,0.4 -0.27,0.52 -0.41,0.63 0.08,0.23 0.26,0.37 0.12,0.7 -0.12,0.28 -0.2,0.27 -0.46,0.43 0.08,0.28 0.05,0.32 -0.11,0.52 0.12,0.15 0.24,0.36 0.28,0.62 0.18,-0.04 0.22,-0.05 0.39,0.02 0.16,-0.45 0.47,-0.61 0.98,-0.41l0.11 -0.2c0.11,-0.18 0.26,-0.3 0.49,-0.33zm2.11 -6.33l-0.05 0.1 0.3 -0c0.4,0.02 0.73,0.29 0.87,0.49 0.24,0.34 0.3,0.6 0.24,1.1 0.48,0.14 0.34,0.26 0.55,0.55 0.54,-0.11 1.01,0.13 1.03,0.61l0.01 0.24 0.28 0.02c0.35,0.03 0.55,0.24 0.66,0.49 0.17,0.38 0.04,0.68 -0.12,0.94 0.34,0.17 0.59,0.29 0.7,0.7 0.08,0.27 0.02,0.63 -0.14,0.85 -0.04,0.06 -0.04,0.03 -0.09,0.09 -0.07,0.07 -0.05,0.04 -0.09,0.11 0.08,0.1 0.23,0.14 0.38,0.45 0.1,0.2 0.13,0.46 0.08,0.7 -0.1,0.52 -0.38,0.66 -0.81,0.84 0.08,0.25 0.41,0.65 0.13,1.3 -0.16,0.38 -0.46,0.61 -0.88,0.76 0.11,0.48 0.09,0.51 -0.17,0.84 0.08,0.13 0.14,0.13 0.22,0.28 0.12,0.25 0.08,0.6 -0.09,0.83 -0.09,0.13 -0.14,0.12 -0.29,0.22 0.13,0.37 0.29,0.58 0.03,1.03 -0.2,0.35 -0.54,0.4 -0.91,0.42 0.07,0.5 -0.03,0.74 -0.3,1 -0.11,0.1 -0.25,0.18 -0.44,0.23 -0.29,0.07 -0.36,-0.02 -0.58,-0.03 -0.14,1.03 -1.09,1.36 -1.9,0.7 -0.54,1.07 -1.78,0.95 -2.27,0.24l-0.08 -0.05 -0 0.1c-0.08,0.37 -0.43,0.52 -0.85,0.42l-0.08 0.19c-0.07,0.15 -0.26,0.33 -0.39,0.39 -0.39,0.17 -0.54,0.01 -0.84,-0.1 -0.08,0.29 -0.42,0.54 -0.84,0.52 -0.2,-0.01 -0.37,-0.08 -0.51,-0.19 -0.18,-0.13 -0.17,-0.23 -0.31,-0.39 -0.25,0.18 -0.64,0.38 -1.05,0.2 -0.33,-0.14 -0.56,-0.38 -0.61,-0.81 -0.5,0.15 -0.83,0.18 -1.21,-0.15 -0.29,-0.25 -0.43,-0.67 -0.33,-1.18 -0.49,0.02 -0.86,-0.17 -1.08,-0.42 -0.3,-0.34 -0.33,-0.59 -0.35,-1.13l0.04 -0.08 -0.07 -0.01c-0.29,-0.04 -0.4,-0.29 -0.47,-0.53 -0.62,0.21 -1.09,-0.22 -1.07,-0.83 -0.46,0.02 -0.75,-0.16 -0.9,-0.45 -0.2,-0.38 -0.12,-0.7 0.09,-1 -0.12,-0.09 -0.31,-0.14 -0.44,-0.25 -0.08,-0.07 -0.22,-0.28 -0.27,-0.44 -0.14,-0.45 0.09,-0.9 0.33,-1.06 -0.86,-0.69 -0.55,-1.74 0.34,-2 -0.16,-0.36 -0.38,-0.74 -0.14,-1.29 0.14,-0.31 0.3,-0.49 0.57,-0.65 0.09,-0.05 0.2,-0.07 0.3,-0.14 -0.18,-0.49 0.01,-0.55 0.18,-0.85 -0.49,-0.36 -0.35,-1.06 0.18,-1.29 -0.16,-0.37 -0.28,-0.6 -0.04,-1.03 0.17,-0.3 0.46,-0.41 0.91,-0.42 -0.17,-0.66 0.31,-1.46 1.32,-1.2 0.1,-1.16 1.37,-1.29 1.88,-0.73 0.08,-0.08 0.1,-0.19 0.17,-0.27 0.45,-0.57 1.27,-0.68 1.95,-0.17 0.07,0.06 0.14,0.17 0.21,0.25 0.13,-0.48 0.4,-0.6 0.92,-0.51 0.15,-0.67 0.78,-0.81 1.23,-0.49 0.11,-0.09 0.11,-0.19 0.34,-0.36 0.34,-0.26 0.99,-0.24 1.3,0.33l0.08 0.12c0.2,-0.26 0.65,-0.35 1.03,-0.22 0.42,0.14 0.53,0.49 0.65,0.8 0.72,-0.27 1.33,0.11 1.49,0.58 0.09,0.24 0.07,0.43 0.05,0.67z"/>
   <path class="fil0" d="M10.85 12.73c-0.19,0.17 -0.26,0.28 -0.17,0.6 -0.4,0.08 -0.71,0.53 -0.33,1.08 -0.22,0.17 -0.4,0.23 -0.43,0.62 -0.03,0.43 0.26,0.6 0.37,0.7 -0.05,0.13 -0.42,0.45 -0.23,0.97 0.12,0.34 0.3,0.49 0.67,0.59 -0.14,0.43 -0.18,0.64 0.07,1.04 0.23,0.37 0.4,0.35 0.91,0.46 0,0.51 0.22,0.84 0.64,1.05l-0.1 0.21c-0.46,-0.16 -0.7,-0.22 -1.1,0.27 -0.66,-0.45 -0.78,-0.26 -1.27,-0.05 -0.06,-0.27 -0.25,-0.47 -0.45,-0.59 -0.31,-0.19 -0.53,-0.14 -0.87,-0.05 -0.04,-0.58 -0.47,-0.99 -1.04,-1.04 0.11,-0.38 0.2,-0.65 0.03,-1.06 -0.13,-0.3 -0.35,-0.59 -0.62,-0.67 0.1,-0.21 0.27,-0.38 0.29,-0.68 0.03,-0.42 -0.1,-0.49 -0.2,-0.78 0.28,-0.27 0.67,-0.59 0.43,-1.24 0.55,-0.11 0.84,-0.42 0.81,-1.05 0.37,-0.03 0.72,-0.08 0.84,-0.56 0.52,0.17 0.86,0.09 1.01,-0.4 0.13,0.04 0.26,0.06 0.39,0.01 0.23,0.51 0.27,0.4 0.35,0.58z"/>
   <path class="fil0" d="M15.37 10.23c-0.01,0.02 -0.04,0.01 -0.05,0.16 -0,0.05 0,0.11 0.01,0.17 -0.13,-0.01 -0.15,-0.04 -0.24,0.03 -0.23,0.02 -0.38,0.15 -0.49,0.33l-0.11 0.2c-0.51,-0.2 -0.83,-0.04 -0.98,0.41 -0.17,-0.07 -0.21,-0.06 -0.39,-0.02 -0.04,-0.26 -0.16,-0.47 -0.28,-0.62 0.16,-0.2 0.19,-0.23 0.11,-0.52 0.26,-0.15 0.34,-0.14 0.46,-0.43 0.14,-0.33 -0.04,-0.47 -0.12,-0.7 0.14,-0.11 0.39,-0.23 0.41,-0.63 0.01,-0.21 -0.07,-0.41 -0.21,-0.55l-0.17 -0.15c0.09,-0.15 0.17,-0.19 0.24,-0.41 0.14,-0.46 -0.08,-0.99 -0.68,-1.13 0.1,-0.4 0.18,-0.74 -0.08,-1.07 -0.2,-0.25 -0.46,-0.42 -0.9,-0.42 -0,-0.57 -0.25,-0.9 -0.65,-1.06l0.12 -0.21c0.48,0.24 0.91,0.08 1.07,-0.27l0.12 0.09c0.05,0.04 0.07,0.05 0.14,0.08 0.35,0.17 0.81,0.1 0.96,-0.13 0.01,0.01 0.02,0.01 0.02,0.02 0,0.01 0.21,0.43 0.45,0.56 0.44,0.24 0.48,0.09 0.91,0.1 0.09,0.38 0.19,0.71 0.61,0.9 0.15,0.07 0.24,0.09 0.42,0.11 -0.1,0.62 -0.29,0.75 0.23,1.47 0.13,0.18 0.23,0.16 0.37,0.29 -0.12,0.23 -0.25,0.28 -0.28,0.67 -0.03,0.35 0.08,0.56 0.22,0.76 -0.15,0.08 -0.35,0.28 -0.42,0.43 -0.16,0.37 -0.09,0.44 -0.04,0.81 -0.44,0.09 -0.69,0.3 -0.78,0.72z"/>
   <path class="fil0" d="M13.06 17.78c-0.09,-0.08 -0.22,-0.06 -0.35,-0.05l-0.04 -0.04c-0,-0 -0.01,-0.02 -0.02,-0.02 -0,-0.01 -0.02,-0.03 -0.03,-0.04 -0.02,-0.46 -0.41,-0.81 -0.86,-0.86 0.08,-0.27 0.09,-0.54 -0.03,-0.77 -0.12,-0.24 -0.28,-0.33 -0.5,-0.45 0.25,-0.6 0.18,-0.54 -0.08,-1.03 0.27,-0.18 0.42,-0.44 0.3,-0.79 -0.06,-0.16 -0.09,-0.13 -0.16,-0.25l0.12 -0.15c0.04,-0.07 0.05,-0.15 0.06,-0.24 0.22,-0.02 0.38,0.03 0.66,-0.02 0.01,0.29 0.12,0.44 0.39,0.49 -0.05,0.58 0.22,0.87 0.79,0.84 0,0.32 0.11,0.58 0.33,0.7 0.29,0.15 0.53,0.14 0.78,-0.01 0.37,0.99 1.25,0.79 1.56,0.44 0.21,0.22 0.46,0.5 0.94,0.46 0.45,-0.04 0.65,-0.28 0.84,-0.57 0.69,0.39 1.02,0.11 1.41,-0.15l0.06 0.1c-0.19,0.16 -0.25,0.13 -0.35,0.44 -0.08,0.23 -0.05,0.47 0.07,0.66 -0.25,0.11 -0.39,0.18 -0.49,0.36 -0.14,0.23 -0.17,0.39 -0.13,0.7 -0.96,-0.09 -1.05,0.5 -1.23,0.86 -0.63,-0.25 -1.14,0.03 -1.38,0.42 -0.18,-0.14 -0.29,-0.38 -0.76,-0.5 -0.4,-0.1 -0.79,0 -1.06,0.19 -0.06,-0.07 -0.07,-0.14 -0.12,-0.22 -0.13,-0.21 -0.42,-0.47 -0.7,-0.49z"/>
   <path class="fil0" d="M11.77 6.88c0.09,0.08 0.04,-0.01 0.05,0.12 -0.15,0.74 0.26,0.91 0.58,1.13 -0.21,0.38 -0.19,0.71 0.08,1 -0.55,0.44 -0.31,0.94 -0.12,1.03 -0.04,0.08 -0.06,0.09 -0.1,0.15 -0.02,0.03 -0.03,0.04 -0.04,0.07l-0.05 0.08c-0.27,-0.04 -0.36,-0.05 -0.63,-0.01 -0.2,-0.3 0.02,-0.14 -0.4,-0.35 0.04,-0.46 -0.12,-0.77 -0.53,-0.82 -0.02,-0.01 0.03,-0.03 -0.1,-0.03 -0.05,-0 -0.1,0.01 -0.15,0.02 -0,-0.14 0.02,-0.1 -0.04,-0.19 -0.03,-0.25 -0.2,-0.43 -0.37,-0.52 -0.31,-0.15 -0.45,-0.09 -0.73,0.02 -0.17,-0.59 -0.67,-0.84 -1.17,-0.67 -0.2,0.07 -0.25,0.17 -0.39,0.22 -0.11,-0.08 -0.07,-0.09 -0.15,-0.17 -0.19,-0.18 -0.49,-0.28 -0.78,-0.27 -0.4,0.02 -0.69,0.28 -0.82,0.57 -0.56,-0.23 -0.8,-0.31 -1.35,0.09 -0.07,0.05 -0.02,0.02 -0.09,0.05l-0.06 -0.08c0.01,-0.01 0.66,-0.39 0.3,-1.1 0.34,-0.23 0.69,-0.36 0.61,-1.09 0.32,0.04 0.6,-0 0.83,-0.17 0.21,-0.16 0.29,-0.34 0.39,-0.68 0.72,0.19 1.06,-0.02 1.41,-0.42l0.08 0.08c0.17,0.21 0.42,0.35 0.7,0.42 0.45,0.1 0.71,-0.04 1.04,-0.18 0.18,0.24 0.19,0.53 0.76,0.71 0.17,0.05 0.32,0.01 0.47,0.05 0.08,0.49 0.33,0.87 0.79,0.94z"/>
   <path class="fil0" d="M18.64 13.11c-0.08,0.1 -0.05,0.15 -0.05,0.3l-0.14 -0.02c-0.89,0.07 -0.93,0.48 -1.12,0.69 -0.65,-0.24 -0.9,-0.08 -1.3,0.26 -0.44,-0.33 -0.64,-0.54 -1.33,-0.13 -0.16,-0.4 -0.41,-0.49 -0.91,-0.45 -0.03,-0.47 -0.3,-0.7 -0.79,-0.66 -0.06,-0.03 -0.05,-0.01 -0.09,-0.05 -0.03,-0.16 -0.11,-0.22 -0.21,-0.3 0.13,-0.15 0.25,-0.26 0.33,-0.51 0.34,0.08 0.37,0.09 0.6,-0.13 0.09,0.14 0.38,0.25 0.64,0.2 0.31,-0.06 0.32,-0.22 0.49,-0.42 0.27,0.1 0.44,0.21 0.77,0.05 0.23,-0.11 0.37,-0.3 0.4,-0.65 0.49,-0.01 0.56,0.08 0.93,-0.21 0.21,-0.16 0.33,-0.54 0.26,-0.91 0.14,-0.06 0.6,-0.07 0.84,-0.5 0.25,-0.45 0.12,-0.68 -0.02,-1.1 0.43,-0.13 0.69,-0.66 0.6,-1.21 -0.04,-0.2 -0.08,-0.12 0.06,-0.17 0.09,0.3 0.02,0.33 0.22,0.57 0.13,0.15 0.31,0.22 0.57,0.25 0.03,0.33 -0.11,0.79 0.63,1.08 -0.32,0.2 -0.44,1.17 0.13,1.47 -0.42,0.39 -0.65,0.84 -0.35,1.46 -0.55,0.1 -1.13,0.48 -1.16,1.1z"/>
   <path class="fil0" d="M8.91 9.45c0.16,0.33 0.42,0.55 0.9,0.44 0.06,0.31 0.05,0.34 0.25,0.52 0.19,0.17 0.35,0.15 0.61,0.14 0.07,0.16 0.04,0.17 0.13,0.28 -0.1,0.13 -0.22,0.31 -0.29,0.54 -0.3,-0.02 -0.38,0.01 -0.54,0.15 -0.21,-0.22 -0.63,-0.31 -0.93,-0.03 -0.15,0.14 -0.08,0.09 -0.18,0.26 -0.3,-0.08 -0.45,-0.24 -0.81,-0.03 -0.24,0.14 -0.31,0.32 -0.39,0.65 -0.52,-0.13 -0.97,0.1 -1.15,0.56 -0.08,0.2 -0.04,0.35 -0.02,0.57 -0.35,0.02 -0.69,0.19 -0.85,0.49 -0.24,0.45 -0.12,0.64 0.01,1.06 -0.07,0.07 -0.78,0.41 -0.6,1.24 0.04,0.16 0.07,0.12 -0.03,0.16 -0.13,-0.21 -0.05,-0.76 -0.82,-0.8 0.07,-0.75 -0.21,-0.84 -0.59,-1.08 0.22,-0.47 0.5,-0.81 -0.14,-1.48 0.56,-0.55 0.54,-0.79 0.33,-1.44 0.78,-0.15 1.19,-0.6 1.2,-1.4 0.41,-0.04 0.87,0.11 1.26,-0.7 0.17,0.12 0.49,0.16 0.74,0.11 0.35,-0.08 0.37,-0.19 0.56,-0.37 0.41,0.37 0.77,0.55 1.33,0.15z"/>
   <path class="fil2" d="M13.06 17.78l-0.43 -0.02 -0.01 -0.13c0.01,0.01 0.02,0.04 0.03,0.04 0,0 0.01,0.02 0.02,0.02l0.04 0.04c0.13,-0.01 0.26,-0.03 0.35,0.05z"/>
   <path class="fil3" d="M15.09 10.59c0.1,-0.06 0.11,-0.04 0.24,-0.03 -0,-0.06 -0.01,-0.11 -0.01,-0.17 0.01,-0.15 0.04,-0.14 0.05,-0.16l-0 0.35 -0.28 0.01z"/>
   <path class="fil4" d="M20.44 7.36l-0.28 -0.02 -0.01 -0.24c0.07,0.09 0.04,0.07 0.03,0.2 0.14,-0.01 0.16,-0.03 0.26,0.05z"/>
   <path class="fil3" d="M10.59 9.28l-0.29 0.01 -0 -0.22c0.06,0.09 0.04,0.05 0.04,0.19 0.05,-0.01 0.1,-0.02 0.15,-0.02 0.13,0.01 0.08,0.02 0.1,0.03z"/>
   <path class="fil5" d="M18.46 13.39l0.14 0.02c-0.01,-0.14 -0.03,-0.2 0.05,-0.3l-0.01 0.33 -0.17 -0.05z"/>
   <path class="fil6" d="M17.46 4.36l-0.3 0 0.05 -0.1c-0.02,0.11 -0.01,0.02 0.03,0.06 0.14,0 0.13,-0.02 0.23,0.04z"/>
   <path class="fil7" d="M13.49 20.41l0 -0.1 0.08 0.05c-0.05,0.03 -0.03,-0 -0.08,0.05z"/>
   <path class="fil8" d="M13.02 13.1l-0.08 0.03 -0 -0.08c0.04,0.03 0.03,0.02 0.09,0.05z"/>
   <path class="fil2" d="M11.82 7c-0.02,-0.13 0.04,-0.03 -0.05,-0.12l0.09 0.03 -0.04 0.09z"/>
   <polygon class="fil9" points="5.04,17.77 5.01,17.69 5.08,17.69 "/>
  </g>
 </g>
</svg>
